<svg id="Capa_1" enable-background="new 0 0 511.975 511.975" height="512" viewBox="0 0 511.975 511.975" width="512" xmlns="http://www.w3.org/2000/svg"><g><g><g><g><path d="m255.987 115.375 49.814 94.347 104.679 18.457-73.892 76.766 14.881 105.754-95.482-46.903-95.481 46.903 14.881-105.754-73.892-76.766 104.678-18.457z" fill="#e2c4ff"/></g></g></g><g fill="#020288"><path d="m510.41 195.511c-3.617-11.102-12.991-19.255-24.465-21.279l-136.973-24.152-65.169-123.426c-5.469-10.357-16.127-16.792-27.815-16.792s-22.347 6.434-27.815 16.792l-65.17 123.426-136.974 24.152c-11.474 2.023-20.848 10.177-24.465 21.279-3.628 11.133-.842 23.284 7.27 31.711l96.731 100.494-19.478 138.425c-1.635 11.621 3.244 23.11 12.732 29.984 9.444 6.843 21.815 7.901 32.28 2.76l124.888-61.348 124.888 61.348c4.402 2.162 9.141 3.228 13.856 3.228 6.497 0 12.951-2.023 18.424-5.988 9.488-6.874 14.367-18.364 12.732-29.985l-19.479-138.424 96.73-100.494c8.114-8.427 10.9-20.578 7.272-31.711zm-21.679 17.841-100.108 104.002c-2.131 2.214-3.126 5.285-2.697 8.329l20.157 143.244c.609 4.333-1.133 8.446-4.661 11.002-3.486 2.525-7.869 2.9-11.729 1.004l-129.297-63.514c-1.391-.683-2.899-1.024-4.409-1.024s-3.019.341-4.409 1.024l-129.297 63.514c-3.859 1.896-8.244 1.52-11.729-1.004-3.528-2.557-5.271-6.669-4.661-11.002l20.157-143.245c.429-3.043-.566-6.114-2.697-8.329l-100.108-104.001c-3.021-3.138-4.017-7.492-2.663-11.646 1.343-4.123 4.679-7.03 8.922-7.778l141.795-25.001c3.042-.536 5.665-2.448 7.106-5.179l67.454-127.756c2.027-3.838 5.813-6.129 10.13-6.129 4.316 0 8.103 2.292 10.13 6.129l67.454 127.756c1.441 2.731 4.064 4.643 7.106 5.179l141.795 25.001c4.243.748 7.579 3.656 8.922 7.778 1.354 4.154.358 8.508-2.663 11.646z"/><path d="m303.536 243.401h-95.098c-5.522 0-10 4.477-10 10s4.478 10 10 10h95.098c5.522 0 10-4.477 10-10s-4.477-10-10-10z"/><path d="m291.61 288.604h-71.246c-5.522 0-10 4.477-10 10s4.478 10 10 10h71.246c5.522 0 10-4.477 10-10s-4.477-10-10-10z"/></g></g></svg>